<svg xmlns="http://www.w3.org/2000/svg" viewBox="0 0 32 32" width="32" height="32">
  <defs>
    <linearGradient id="bg" x1="0%" y1="0%" x2="100%" y2="100%">
      <stop offset="0%" style="stop-color:#10b981;stop-opacity:1" />
      <stop offset="50%" style="stop-color:#059669;stop-opacity:1" />
      <stop offset="100%" style="stop-color:#047857;stop-opacity:1" />
    </linearGradient>
  </defs>
  
  <!-- Background circle -->
  <circle cx="16" cy="16" r="15" fill="url(#bg)" stroke="#047857" stroke-width="1"/>
  
  <!-- Mate cup (chimarrão) -->
  <path d="M10 12 Q10 10 12 10 L20 10 Q22 10 22 12 L22 20 Q22 22 20 22 L12 22 Q10 22 10 20 Z" 
        fill="#8B4513" stroke="#654321" stroke-width="0.5"/>
  
  <!-- Mate leaves -->
  <ellipse cx="16" cy="14" rx="4" ry="2" fill="#22c55e" opacity="0.8"/>
  <ellipse cx="15" cy="15" rx="2" ry="1" fill="#16a34a" opacity="0.9"/>
  <ellipse cx="17" cy="15" rx="2" ry="1" fill="#16a34a" opacity="0.9"/>
  
  <!-- Bombilla (straw) -->
  <rect x="19" y="8" width="1" height="8" fill="#C0C0C0" rx="0.5"/>
  <circle cx="19.5" cy="8" r="0.8" fill="#E6E6E6"/>
  
  <!-- Small leaf decoration -->
  <path d="M8 8 Q6 6 8 4 Q10 6 8 8" fill="#22c55e" opacity="0.7"/>
  <path d="M24 8 Q26 6 24 4 Q22 6 24 8" fill="#22c55e" opacity="0.7"/>
</svg>